<?xml version="1.0" standalone="no"?>
<!DOCTYPE svg PUBLIC "-//W3C//DTD SVG 20010904//EN"
 "http://www.w3.org/TR/2001/REC-SVG-20010904/DTD/svg10.dtd">
<svg version="1.0" xmlns="http://www.w3.org/2000/svg"
 width="1518.000000pt" height="1518.000000pt" viewBox="0 0 1518.000000 1518.000000"
 preserveAspectRatio="xMidYMid meet">
<metadata>
Created by potrace 1.14, written by Peter Selinger 2001-2017
</metadata>
<g transform="translate(0.000000,1518.000000) scale(0.100000,-0.100000)"
fill="#000000" stroke="none">
<path d="M10347 13904 c-1 -1 -15 -4 -32 -7 -16 -3 -59 -13 -95 -22 -36 -8
-76 -18 -90 -21 -14 -3 -77 -23 -140 -45 -63 -22 -119 -41 -125 -43 -39 -11
-265 -110 -350 -153 -227 -115 -504 -341 -749 -614 -27 -30 -77 -83 -111 -119
-33 -36 -87 -96 -119 -135 -32 -38 -83 -97 -112 -130 -30 -33 -84 -100 -121
-150 -37 -49 -72 -95 -77 -102 -27 -31 -40 -47 -94 -125 -32 -46 -74 -105 -94
-133 -20 -27 -62 -97 -93 -155 -75 -140 -95 -174 -109 -182 -6 -4 -7 -8 -2 -8
5 0 2 -8 -6 -17 -8 -10 -23 -38 -33 -63 -10 -25 -51 -114 -92 -198 -41 -84
-87 -194 -104 -245 -17 -51 -33 -94 -35 -96 -2 -2 -12 3 -22 12 -10 10 -21 17
-24 17 -3 0 -35 17 -69 38 -64 38 -190 102 -284 142 -64 28 -309 110 -445 149
-109 31 -249 60 -410 85 -154 25 -454 21 -700 -8 -19 -2 -60 -7 -90 -11 -87
-10 -174 -24 -247 -40 -13 -3 -32 -7 -42 -9 -61 -14 -280 -77 -321 -93 -8 -4
-17 -7 -20 -8 -3 -1 -14 -5 -25 -10 -11 -4 -41 -16 -66 -26 -120 -46 -482
-217 -487 -231 -2 -4 -10 -8 -19 -8 -8 0 -26 -9 -40 -20 -14 -11 -31 -20 -39
-20 -7 0 -14 -3 -16 -8 -1 -4 -34 -27 -73 -52 -38 -24 -72 -47 -75 -50 -3 -3
-25 -19 -50 -35 -25 -17 -49 -35 -55 -41 -5 -6 -28 -24 -50 -40 -22 -16 -44
-34 -50 -40 -5 -5 -32 -27 -59 -49 -26 -21 -58 -48 -70 -59 -12 -12 -62 -57
-111 -101 -89 -80 -312 -300 -350 -346 -75 -90 -150 -175 -157 -177 -4 -2 -8
-9 -8 -15 0 -7 -16 -29 -35 -49 -19 -20 -35 -39 -35 -42 0 -3 -8 -14 -17 -24
-20 -21 -18 -18 -132 -162 -45 -58 -91 -115 -102 -128 -10 -12 -19 -27 -19
-32 0 -6 -3 -10 -7 -10 -5 0 -21 -23 -38 -50 -16 -28 -33 -50 -39 -50 -5 0 -7
-3 -3 -6 3 -4 -7 -25 -22 -48 -50 -73 -251 -489 -251 -519 0 -7 -4 -17 -9 -22
-8 -10 -90 -240 -96 -273 -2 -9 -4 -17 -5 -17 -1 0 -3 -7 -6 -15 -52 -195
-116 -441 -119 -460 -2 -14 -9 -47 -15 -75 -16 -69 -22 -97 -44 -215 -8 -47
-18 -101 -22 -120 -3 -19 -8 -46 -9 -60 -2 -14 -4 -25 -5 -25 -1 0 -3 -16 -5
-35 -3 -19 -7 -51 -11 -70 -3 -19 -8 -51 -10 -70 -2 -19 -7 -51 -10 -70 -2
-19 -7 -55 -10 -80 -2 -25 -7 -61 -10 -80 -7 -48 -16 -137 -18 -182 0 -21 -3
-38 -6 -38 -3 0 -6 -19 -6 -43 -1 -23 -5 -94 -9 -157 -8 -133 -9 -497 -1 -585
3 -33 8 -85 10 -115 3 -30 8 -84 11 -120 4 -36 8 -76 11 -90 3 -14 7 -41 10
-60 3 -19 7 -50 9 -68 3 -17 7 -49 10 -70 3 -20 19 -100 36 -176 17 -77 32
-144 33 -150 2 -6 11 -37 20 -70 10 -32 19 -64 21 -70 3 -17 16 -49 26 -68 5
-10 9 -26 9 -36 0 -10 4 -22 8 -27 5 -6 17 -32 26 -60 10 -27 20 -57 23 -65 4
-8 7 -17 8 -20 0 -3 8 -19 18 -36 9 -17 14 -34 11 -36 -2 -3 2 -11 11 -18 8
-7 15 -19 15 -26 0 -7 11 -37 24 -66 13 -29 33 -74 45 -100 11 -27 31 -69 42
-95 12 -27 21 -50 21 -53 0 -3 7 -13 15 -22 9 -10 13 -18 10 -18 -3 0 21 -53
55 -117 33 -65 68 -133 76 -150 9 -18 20 -33 24 -33 4 0 8 -5 8 -11 0 -6 13
-30 30 -54 16 -24 30 -48 30 -54 0 -6 3 -11 8 -11 4 0 21 -23 37 -51 104 -173
287 -434 337 -480 10 -9 18 -19 18 -22 0 -10 340 -347 349 -347 5 0 21 -13 34
-30 14 -16 30 -30 36 -30 10 0 28 -13 65 -45 6 -5 27 -19 48 -30 88 -48 377
-223 388 -235 6 -6 30 -20 110 -63 30 -17 84 -46 120 -66 36 -20 106 -56 155
-81 50 -25 92 -48 93 -52 2 -5 8 -8 13 -8 4 0 39 -14 76 -32 38 -17 70 -32 73
-33 13 -4 70 -29 129 -56 36 -17 70 -31 76 -32 5 -1 12 -4 15 -7 3 -3 57 -28
120 -54 63 -27 129 -55 145 -62 17 -7 44 -16 60 -20 17 -4 35 -10 40 -14 6 -4
57 -22 115 -39 58 -18 112 -35 120 -38 8 -4 18 -6 21 -5 4 1 22 -3 40 -9 31
-9 97 -21 127 -22 6 0 12 -3 12 -7 0 -3 15 -5 33 -5 17 0 37 -2 42 -4 6 -3 19
-6 30 -8 11 -1 40 -4 65 -7 70 -8 160 -18 210 -21 25 -2 45 -4 45 -5 0 -1 137
-9 260 -15 115 -5 371 -5 430 0 28 3 88 10 135 16 100 14 141 17 274 23 93 4
103 3 145 -21 67 -37 112 -51 188 -58 110 -11 185 -20 245 -30 42 -8 129 -17
166 -18 17 -1 32 -4 32 -7 0 -8 376 -5 420 4 19 3 60 12 90 18 30 6 62 12 70
13 8 1 22 5 30 7 30 11 96 29 115 33 11 2 21 4 23 5 1 2 7 4 12 5 6 1 13 4 18
5 4 2 12 4 17 5 6 1 23 7 38 13 16 7 34 12 41 12 6 0 17 5 24 12 7 7 12 9 12
5 0 -4 10 -2 23 5 12 7 24 13 27 13 3 1 16 6 30 12 14 6 42 16 63 24 20 7 37
17 37 23 0 5 2 7 6 4 5 -6 134 50 224 97 30 16 57 29 60 30 3 0 12 5 20 10 8
5 33 19 55 30 75 40 180 99 228 127 26 15 52 28 57 28 4 0 10 3 12 8 2 4 49
38 106 76 56 38 102 73 102 77 0 5 7 9 15 9 8 0 15 5 15 11 0 5 5 7 10 4 6 -3
10 -3 10 2 0 4 17 19 38 33 20 13 58 41 83 62 26 21 50 38 53 38 7 0 87 57
116 83 8 7 40 33 70 57 87 72 102 84 120 100 15 15 115 100 174 150 87 72 506
505 506 522 0 4 7 8 15 8 8 0 15 3 15 8 0 4 16 25 36 47 20 22 70 83 112 135
42 52 80 100 85 105 4 6 23 31 41 57 18 26 36 45 40 41 3 -3 6 -1 6 7 0 14
101 150 111 150 4 0 10 11 13 25 4 14 11 25 16 25 6 0 10 5 10 10 0 6 5 16 10
23 41 48 50 62 50 74 0 8 5 11 10 8 6 -3 10 1 10 9 0 8 6 21 13 28 7 7 16 20
20 28 4 8 25 44 46 80 22 36 48 81 57 100 10 19 21 37 24 40 18 16 397 773
405 810 0 3 6 15 13 28 7 12 10 22 6 22 -3 0 -1 6 5 13 6 8 8 17 4 20 -3 4 -1
7 5 7 7 0 12 6 12 14 0 8 5 27 12 43 6 15 12 33 13 38 0 6 6 23 13 38 7 16 12
34 12 41 0 7 3 16 7 20 4 3 8 12 9 19 2 7 12 46 24 87 23 83 24 86 39 150 11
41 18 71 26 110 2 8 4 16 5 18 2 1 4 7 5 12 1 6 3 11 4 13 1 1 4 16 6 32 3 29
9 65 20 115 3 14 8 36 10 50 2 14 6 36 9 50 14 70 38 210 41 245 5 44 9 74 20
150 5 28 8 65 9 83 0 17 3 32 6 32 3 0 6 19 6 43 1 42 12 202 14 202 2 0 11
180 14 286 1 64 6 121 10 127 4 7 3 12 -1 12 -10 0 -10 47 0 56 3 4 2 14 -3
23 -5 10 -5 23 0 31 4 7 4 24 -1 37 -6 16 -5 22 1 18 6 -4 7 2 1 18 -6 16 -6
28 2 36 6 6 7 11 1 11 -5 0 -9 35 -10 78 -1 74 -10 234 -20 337 -2 28 -6 70
-8 95 -2 25 -5 45 -6 45 -1 0 -3 11 -4 25 -2 14 -7 52 -11 85 -16 114 -18 120
-49 280 -4 17 -9 41 -12 55 -4 14 -8 35 -10 48 -5 40 -67 257 -76 269 -5 7 -7
17 -3 23 3 5 1 10 -4 10 -6 0 -10 3 -9 8 1 4 -6 24 -15 46 -9 21 -17 41 -17
43 0 8 -103 217 -119 242 -8 13 -16 31 -18 40 -1 9 -7 17 -12 19 -6 2 -11 10
-11 18 0 8 -4 14 -10 14 -5 0 -10 5 -10 11 0 6 -9 24 -21 40 -11 16 -18 29
-14 29 5 0 -3 12 -32 45 -7 7 -13 18 -13 23 0 5 -9 17 -20 27 -11 10 -20 22
-20 27 0 8 -36 64 -50 78 -3 3 -21 28 -40 55 -19 28 -39 55 -45 61 -5 6 -28
33 -50 60 -48 59 -421 434 -432 434 -5 0 -29 19 -55 43 -25 23 -56 49 -68 57
-12 8 -30 22 -40 30 -10 8 -28 22 -40 30 -12 8 -42 30 -66 48 -23 17 -47 32
-52 32 -5 0 -15 7 -22 15 -25 30 -393 234 -435 241 -5 1 -33 15 -62 32 -28 17
-54 28 -57 25 -3 -4 -6 -1 -6 5 0 7 -4 12 -9 12 -5 0 -51 20 -102 43 -97 45
-127 58 -144 63 -9 2 -219 77 -255 91 -8 3 -24 8 -34 10 -11 2 -38 10 -60 17
-23 8 -57 17 -76 20 -42 7 -66 12 -102 21 -15 4 -40 8 -55 10 -15 2 -48 6 -73
9 -25 4 -60 7 -78 8 -18 1 -34 4 -36 7 -2 3 -37 6 -78 6 l-73 0 135 136 c248
250 327 339 407 459 98 147 280 480 363 665 12 28 31 68 41 91 47 104 123 331
145 429 7 33 30 114 59 210 33 107 73 277 79 333 6 58 -25 84 -128 109 -22 5
-144 11 -149 7z"/>
</g>
</svg>
